HIERARCHY
ROOT hip
{
	OFFSET 0.000000 0.000000 0.000000
	CHANNELS 6 Xposition Yposition Zposition Zrotation Yrotation Xrotation 
	JOINT lhipjoint
	{
		OFFSET 0.000000 0.000000 0.000000
		CHANNELS 3 Zrotation Yrotation Xrotation
		JOINT lfemur
		{
			OFFSET 1.363060 -1.794630 0.839290
			CHANNELS 3 Zrotation Yrotation Xrotation
			JOINT ltibia
			{
				OFFSET 2.448110 -6.726130 0.000000
				CHANNELS 3 Zrotation Yrotation Xrotation
				JOINT lfoot
				{
					OFFSET 2.562200 -7.039590 0.000000
					CHANNELS 3 Zrotation Yrotation Xrotation
					JOINT ltoes
					{
						OFFSET 0.157640 -0.433110 2.322550
						CHANNELS 3 Zrotation Yrotation Xrotation
						End Site
						{
							OFFSET 0.000000 0.000000 0.000000
						}
					}
				}
			}
		}
	}
	JOINT rhipjoint
	{
		OFFSET 0.000000 0.000000 0.000000
		CHANNELS 3 Zrotation Yrotation Xrotation
		JOINT rfemur
		{
			OFFSET -1.305520 -1.794630 0.839290
			CHANNELS 3 Zrotation Yrotation Xrotation
			JOINT rtibia
			{
				OFFSET -2.542530 -6.985550 0.000000
				CHANNELS 3 Zrotation Yrotation Xrotation
				JOINT rfoot
				{
					OFFSET -2.568260 -7.056230 0.000000
					CHANNELS 3 Zrotation Yrotation Xrotation
					JOINT rtoes
					{
						OFFSET -0.164730 -0.452590 2.363150
						CHANNELS 3 Zrotation Yrotation Xrotation
						End Site
						{
							OFFSET 0.000000 0.000000 0.000000
						}
					}
				}
			}
		}
	}
	JOINT lowerback
	{
		OFFSET 0.000000 0.000000 0.000000
		CHANNELS 3 Zrotation Yrotation Xrotation
		JOINT upperback
		{
			OFFSET 0.028270 2.035590 -0.193380
			CHANNELS 3 Zrotation Yrotation Xrotation
			JOINT thorax
			{
				OFFSET 0.056720 2.048850 -0.042750
				CHANNELS 3 Zrotation Yrotation Xrotation
				JOINT lowerneck
				{
					OFFSET 0.000000 0.000000 0.000000
					CHANNELS 3 Zrotation Yrotation Xrotation
					JOINT upperneck
					{
						OFFSET -0.054170 1.746240 0.172020
						CHANNELS 3 Zrotation Yrotation Xrotation
						JOINT head
						{
							OFFSET 0.104070 1.761360 -0.123970
							CHANNELS 3 Zrotation Yrotation Xrotation
							End Site
							{
								OFFSET 0.000000 0.000000 0.000000
							}
						}
					}
				}
				JOINT lclavicle
				{
					OFFSET 0.000000 0.000000 0.000000
					CHANNELS 3 Zrotation Yrotation Xrotation
					JOINT lhumerus
					{
						OFFSET 3.362410 1.200890 -0.311210
						CHANNELS 3 Zrotation Yrotation Xrotation
						JOINT lradius
						{
							OFFSET 4.983000 -0.000000 -0.000000
							CHANNELS 3 Zrotation Yrotation Xrotation
							JOINT lwrist
							{
								OFFSET 3.483560 -0.000000 -0.000000
								CHANNELS 3 Zrotation Yrotation Xrotation
								JOINT lhand
								{
									OFFSET 0.000000 0.000000 0.000000
									CHANNELS 3 Zrotation Yrotation Xrotation
									JOINT lfingers
									{
										OFFSET 0.715260 -0.000000 -0.000000
										CHANNELS 3 Zrotation Yrotation Xrotation
										End Site
										{
											OFFSET 0.000000 0.000000 0.000000
										}
									}
								}
								JOINT lthumb
								{
									OFFSET 0.000000 0.000000 0.000000
									CHANNELS 3 Zrotation Yrotation Xrotation
									End Site
									{
										OFFSET 0.000000 0.000000 0.000000
									}
								}
							}
						}
					}
				}
				JOINT rclavicle
				{
					OFFSET 0.000000 0.000000 0.000000
					CHANNELS 3 Zrotation Yrotation Xrotation
					JOINT rhumerus
					{
						OFFSET -3.136600 1.374050 -0.404650
						CHANNELS 3 Zrotation Yrotation Xrotation
						JOINT rradius
						{
							OFFSET -5.241900 -0.000000 -0.000000
							CHANNELS 3 Zrotation Yrotation Xrotation
							JOINT rwrist
							{
								OFFSET -3.444170 -0.000000 -0.000000
								CHANNELS 3 Zrotation Yrotation Xrotation
								JOINT rhand
								{
									OFFSET 0.000000 0.000000 0.000000
									CHANNELS 3 Zrotation Yrotation Xrotation
									JOINT rfingers
									{
										OFFSET -0.622530 -0.000000 -0.000000
										CHANNELS 3 Zrotation Yrotation Xrotation
										End Site
										{
											OFFSET 0.000000 0.000000 0.000000
										}
									}
								}
								JOINT rthumb
								{
									OFFSET 0.000000 0.000000 0.000000
									CHANNELS 3 Zrotation Yrotation Xrotation
									End Site
									{
										OFFSET 0.000000 0.000000 0.000000
									}
								}
							}
						}
					}
				}
			}
		}
	}
}
MOTION
Frames: 9
Frame Time: 0.008333
0.595963 17.199991 2.564981 -178.976950 -4.879195 -175.950166 -4.858796 -2.747049 -0.403488 -9.570899 -1.818083 -19.328030 5.696895 13.297360 40.466827 0.431035 -1.797618 -11.430816 0.443000 -4.270800 -11.839700 2.384848 3.748670 -2.473757 17.551633 -14.992982 -15.917849 -3.968264 -11.153822 29.122989 0.008576 19.294439 -7.800199 -0.038900 -1.273400 3.501400 3.433823 2.276662 -6.463871 1.334244 2.888744 -5.164174 -0.831525 0.895786 8.240798 -5.173528 -3.022776 -15.287438 -0.941963 -3.206104 28.583008 -1.540600 -1.986100 9.254200 -5.653483 -3.429427 2.510731 -70.358906 5.756700 49.459925 12.472369 -25.623164 -2.867618 0.504742 1.019759 22.654952 18.549316 -11.151974 -4.090800 -7.125000 0.000000 0.000000 -6.077700 17.021600 4.055400 8.445131 3.932085 3.571095 61.264917 2.777961 37.563432 -34.625299 49.052208 -11.824527 -0.779678 -1.823798 9.427960 -15.933263 14.705219 -4.564100 7.125000 0.000000 0.000000 8.204100 -12.764200 6.254700 
0.574733 17.191302 2.546349 -178.739291 -5.429722 -175.843945 -4.847870 -2.757128 -0.407594 -9.436750 -1.775621 -19.076588 5.546472 13.145296 39.798148 0.464927 -2.320124 -11.770240 0.430100 -4.208900 -11.665200 2.374474 3.719962 -2.449023 17.812504 -15.083102 -16.070368 -3.990011 -11.167370 29.219231 -0.044404 19.039316 -8.133703 -0.026400 -1.049600 2.885300 3.396423 2.201418 -6.519177 1.360695 2.780804 -5.203637 -0.778227 0.850050 8.145044 -5.316798 -3.107043 -15.499812 -0.877527 -3.261034 28.397737 -1.489900 -2.015100 9.260100 -5.634149 -3.473899 2.496709 -70.197401 5.613881 50.123997 12.981725 -26.137331 -3.009136 0.494279 1.045060 21.906917 18.703984 -11.079805 -4.111500 -7.125000 0.000000 0.000000 -5.966200 17.062400 3.974800 8.346889 3.963846 3.550895 61.918183 1.970460 36.805595 -32.659302 47.777115 -10.815552 -0.725321 -1.800431 10.121802 -15.639886 14.257929 -4.369300 7.125000 0.000000 0.000000 8.341900 -13.281500 6.270600 
0.552787 17.183598 2.528881 -178.536447 -5.942708 -175.733007 -4.837399 -2.763893 -0.411356 -9.342664 -1.741972 -18.882837 5.416183 13.006142 39.205682 0.497549 -2.811350 -12.110111 0.420200 -4.160600 -11.529000 2.365551 3.693229 -2.427735 18.034820 -15.126701 -16.195529 -4.008419 -11.174804 29.290498 -0.101205 18.747240 -8.511051 -0.012200 -0.714200 1.962700 3.345518 2.129551 -6.562132 1.383014 2.680790 -5.235169 -0.733283 0.807290 8.073529 -5.472270 -3.182507 -15.720506 -0.804826 -3.300440 28.205165 -1.431700 -2.036400 9.264200 -5.616982 -3.516571 2.486108 -70.023293 5.450931 50.763814 13.519217 -26.678863 -3.163481 0.483267 1.069575 21.071060 18.826725 -11.038435 -4.133900 -7.125000 0.000000 0.000000 -5.878600 17.074600 3.914300 8.243326 3.990156 3.529486 62.597306 1.234881 35.892803 -30.803619 46.517987 -9.900651 -0.672972 -1.774113 10.850790 -15.274104 13.802821 -4.153500 7.125000 0.000000 0.000000 8.532400 -13.816300 6.319800 
0.530661 17.174909 2.513115 -178.388034 -6.456431 -175.651416 -4.824372 -2.767864 -0.413891 -9.312654 -1.718482 -18.703599 5.300004 12.876959 38.665013 0.526246 -3.265943 -12.406016 0.416600 -4.143200 -11.479900 2.361638 3.671017 -2.408976 18.186737 -15.040587 -16.239321 -4.029912 -11.186697 29.369817 -0.171601 18.323196 -8.975789 -0.003600 -0.387600 1.065000 3.255000 2.074405 -6.530943 1.390193 2.615816 -5.266820 -0.729923 0.779832 7.960905 -5.569455 -3.275338 -15.919423 -0.746523 -3.374442 28.010308 -1.394400 -2.069400 9.264800 -5.600089 -3.559207 2.476967 -69.781125 5.259612 51.451181 14.038345 -27.189047 -3.316312 0.475281 1.093022 20.206052 18.971290 -11.080262 -4.188400 -7.125000 0.000000 0.000000 -5.780600 16.997500 3.858100 8.129213 4.019537 3.505458 63.272934 0.654351 34.956560 -28.838786 45.121059 -8.971432 -0.624421 -1.751806 11.564659 -15.045926 13.334505 -3.978400 7.125000 0.000000 0.000000 8.636100 -14.344800 6.300500 
0.507729 17.167295 2.497976 -178.238129 -6.953398 -175.569998 -4.812186 -2.770491 -0.417625 -9.283030 -1.717708 -18.547920 5.195028 12.756152 38.169150 0.550291 -3.658290 -12.654329 0.407800 -4.099400 -11.356400 2.356497 3.646977 -2.392357 18.339545 -14.893706 -16.253458 -4.052878 -11.198338 29.446625 -0.246435 17.837357 -9.463952 -0.000100 -0.071700 0.197000 3.189481 2.028036 -6.498749 1.398045 2.558368 -5.290627 -0.727240 0.757459 7.877226 -5.725307 -3.359124 -16.118716 -0.644274 -3.439131 27.812211 -1.324600 -2.099800 9.262800 -5.583510 -3.600320 2.471768 -69.550926 5.027621 52.103507 14.558229 -27.695092 -3.470991 0.465645 1.113452 19.310086 19.037577 -11.100638 -4.215900 -7.125000 0.000000 0.000000 -5.736900 16.953600 3.834200 8.004798 4.032819 3.480850 63.884700 0.267822 33.996868 -26.743554 43.563554 -8.029320 -0.584082 -1.721296 12.269672 -14.871948 12.930822 -3.832500 7.125000 0.000000 0.000000 8.713200 -14.809400 6.270800 
0.484080 17.159681 2.484002 -178.123994 -7.428173 -175.502479 -4.797124 -2.774671 -0.422892 -9.297217 -1.675423 -18.409752 5.097072 12.640942 37.699968 0.571389 -4.043848 -12.865495 0.400000 -4.060500 -11.247000 2.356450 3.629834 -2.380124 18.432071 -14.711949 -16.234136 -4.076767 -11.216874 29.537002 -0.316239 17.367654 -9.947665 -0.001800 0.275600 -0.757200 3.113748 1.999063 -6.439200 1.391004 2.530422 -5.304056 -0.789655 0.747949 7.817003 -5.762661 -3.455875 -16.291435 -0.606056 -3.521686 27.585698 -1.305700 -2.130500 9.238400 -5.567421 -3.629216 2.470850 -69.236547 4.735805 52.745217 15.034603 -28.148186 -3.616038 0.457798 1.130262 18.464655 19.103047 -11.163864 -4.256200 -7.125000 0.000000 0.000000 -5.696400 16.867500 3.817500 7.873286 4.049035 3.455958 64.567787 -0.079496 32.849033 -24.703404 41.993068 -7.163737 -0.545067 -1.684278 13.135714 -14.609130 12.498651 -3.656100 7.125000 0.000000 0.000000 8.851700 -15.317000 6.275500 
0.459715 17.152514 2.471461 -178.007426 -7.866335 -175.444646 -4.783280 -2.779383 -0.429724 -9.309048 -1.657248 -18.270532 5.006675 12.532614 37.261888 0.589259 -4.350506 -13.054401 0.382300 -3.970900 -10.994800 2.355606 3.614748 -2.370076 18.524207 -14.581589 -16.233649 -4.096842 -11.233005 29.616420 -0.377795 16.922307 -10.372878 -0.010600 0.664800 -1.826900 3.041942 1.986583 -6.360166 1.384755 2.523647 -5.310621 -0.839956 0.749109 7.762522 -5.802545 -3.555804 -16.394662 -0.564783 -3.620677 27.344025 -1.286900 -2.168300 9.186500 -5.547608 -3.657669 2.475603 -68.916829 4.422761 53.369382 15.510939 -28.600197 -3.763721 0.450852 1.144484 17.738496 19.142530 -11.203250 -4.281800 -7.125000 0.000000 0.000000 -5.673100 16.811100 3.808800 7.742024 4.061532 3.431273 65.238105 -0.379353 31.558299 -22.700076 40.391909 -6.364267 -0.506618 -1.637212 14.036321 -14.240557 12.067469 -3.452900 7.125000 0.000000 0.000000 9.067600 -15.842200 6.328600 
0.435439 17.145975 2.460174 -177.913804 -8.293169 -175.382133 -4.769114 -2.784875 -0.437900 -9.342059 -1.592043 -18.169951 4.920918 12.427042 36.841285 0.601756 -4.675286 -13.167975 0.350600 -3.804600 -10.527500 2.356616 3.605856 -2.364391 18.590679 -14.523143 -16.259523 -4.112696 -11.250319 29.693132 -0.432160 16.549048 -10.793732 -0.029700 1.112200 -3.057600 2.944043 1.981303 -6.283954 1.374737 2.531207 -5.304593 -0.899667 0.754192 7.752123 -5.773632 -3.662688 -16.468364 -0.532384 -3.737036 27.070100 -1.288900 -2.205000 9.108100 -5.519053 -3.672376 2.484352 -68.584836 4.049388 53.890321 15.940657 -29.006993 -3.901026 0.444755 1.156056 17.251298 19.196555 -11.189949 -4.293400 -7.125000 0.000000 0.000000 -5.636300 16.810500 3.783900 7.597563 4.065558 3.408293 65.983675 -0.515975 29.929479 -20.592477 38.654855 -5.582226 -0.474776 -1.572167 15.194821 -13.780629 11.737783 -3.251600 7.125000 0.000000 0.000000 9.352500 -16.286800 6.441700 
0.410178 17.140421 2.449873 -177.835865 -8.694263 -175.345354 -4.755522 -2.795196 -0.447898 -9.399067 -1.523676 -18.031030 4.838067 12.326528 36.433868 0.613303 -4.970402 -13.278700 0.318800 -3.629200 -10.035900 2.357565 3.609179 -2.366053 18.616060 -14.548897 -16.269365 -4.119496 -11.266645 29.749267 -0.470134 16.246827 -11.078405 -0.052200 1.474700 -4.056000 2.829723 1.966475 -6.177174 1.368920 2.529996 -5.289505 -0.940462 0.752900 7.755971 -5.725397 -3.761776 -16.485609 -0.534398 -3.840985 26.759504 -1.307500 -2.236600 8.998200 -5.486579 -3.681115 2.498145 -68.246127 3.689405 54.360870 16.370955 -29.419639 -4.043015 0.441473 1.164833 16.874228 19.226285 -11.193761 -4.303900 -7.125000 0.000000 0.000000 -5.617500 16.796000 3.772900 7.454227 4.065594 3.385949 66.693594 -0.562995 28.146130 -18.494116 36.859858 -4.855739 -0.437570 -1.492419 16.426512 -13.142956 11.379138 -3.003800 7.125000 0.000000 0.000000 9.763600 -16.788000 6.625100 
